<?xml version="1.0" encoding="utf-8" ?><svg xmlns="http://www.w3.org/2000/svg" xmlns:xlink="http://www.w3.org/1999/xlink" width="200" height="200" viewBox="0 0 200 200"><path d="M72.4389 63.2192C72.7713 63.9998 73.1462 65.1984 73.8192 65.6194C74.7747 65.746 76.5471 64.1481 77.3667 63.5664C82.9963 59.5705 89.5484 57.3912 96.3647 56.5294C99.446 56.1349 102.552 55.9709 105.658 56.0387C106.421 56.059 108.061 56.2779 108.546 55.9756C108.108 54.331 99.3684 53.0996 97.5924 51.9691L97.6911 51.7471C104.361 51.368 121.35 54.8594 127.249 59.1101C129.041 60.4014 128.674 63.6465 128.193 65.6749L127.16 64.9383L126.455 63.6317C126.958 62.7774 127.048 62.6237 127.106 61.6456L126.808 61.2197C126.473 61.2625 112.673 72.093 109.152 73.7082C102.959 71.9116 99.7426 73.3636 93.9595 74.4848C93.5836 74.5577 87.7948 70.8348 86.7575 70.0172C89.3552 70.3157 92.1404 70.8031 94.7193 71.2869C101.254 72.5128 117.542 70.0345 120.05 62.9699L119.889 62.4381C118.683 62.339 117.787 63.3841 116.755 63.9523C107.322 69.1488 93.5467 71.0913 84.2635 64.6019C84.6099 67.2484 84.1144 71.1232 83.8309 73.8607C91.1813 76.6319 93.4367 76.997 101.148 77.9626C100.219 78.6984 99.8416 78.7167 98.7057 78.8631C95.0337 78.6119 92.9176 78.5535 89.3906 77.4079C89.5854 79.5239 90.0282 83.3612 89.8841 85.3102C91.3449 85.7194 92.7901 86.1819 94.2169 86.697L93.9577 87.5091C92.8433 87.1901 91.1861 86.5789 90.1277 86.8108C89.9574 86.9345 89.7522 87.0835 89.5121 87.2579C88.6122 89.9745 88.7468 91.9511 87.2291 94.6505C86.7499 94.2481 86.8222 93.8072 86.6774 93.0472C87.5917 90.5089 87.9979 88.6277 88.5784 86.0127C86.8499 85.228 82.8165 83.6635 82.6634 81.7027C83.4729 80.0183 85.3003 79.5454 87.0466 78.8037C86.4889 79.4336 85.4121 80.1475 85.0028 80.8487C83.8446 82.8332 87.4818 84.2105 88.9594 85.0277C88.1739 79.8676 89.3979 76.5464 84.0801 75.9089C83.1524 75.7977 80.9566 73.8241 80.2428 73.0472C79.6597 71.8758 79.7116 71.7436 80.3832 70.7195C81.1054 71.6322 81.1113 71.9504 82.1056 72.1883C83.3792 71.3974 83.3637 69.3596 82.9407 68.0714L82.4804 67.0544L82.7662 66.9297C83.6301 65.7494 83.3893 64.1725 83.3129 62.7385C86.0215 64.3699 87.4557 66.403 90.4866 64.1618C91.4938 64.1133 93.8769 64.1233 94.554 63.4467C93.414 62.7733 92.3947 63.2438 91.1791 62.5979C99.1693 60.3413 106.988 61.1047 114.753 63.7137C117.128 62.5867 118.267 61.4962 120.36 60.3734C116.676 59.5477 113.524 58.4463 109.694 57.8467C99.1942 56.2029 88.4504 58.1229 79.3482 63.6638C77.4754 64.8039 75.9081 66.2144 74.3173 67.2284L74.0051 66.9438L73.9911 67.0719C73.9439 67.4731 73.8984 67.8956 73.6251 68.2098C72.567 68.8301 72.901 70.4604 72.4688 71.8952L72.1747 71.9936C70.9609 70.7395 69.3972 68.1276 67.7801 68.1779C67.6041 65.4144 63.8349 62.5012 63.4919 60.4321L64.1156 59.9847C66.2452 62.5505 69.4614 66.9904 71.6734 69.0928C71.7702 67.1175 72.0262 65.1533 72.4389 63.2192ZM124.067 61.7914C124.735 61.2584 125.569 60.7165 125.871 59.9422C125.355 57.6592 111.681 54.5154 109.359 54.3346C111.041 57.4953 119.435 55.8841 121.927 62.912C122.685 62.9613 123.327 62.314 124.067 61.7914Z"/><defs><linearGradient id="gradient_0" gradientUnits="userSpaceOnUse" x1="80.491333" y1="95.413933" x2="95.487556" y2="81.637688"><stop offset="0" stop-color="black" stop-opacity="0.96862745"/><stop offset="1" stop-color="black"/></linearGradient></defs><path fill="url(#gradient_0)" d="M73.6251 68.2098C73.8984 67.8956 73.9439 67.4731 73.9911 67.0719L74.0051 66.9438L74.3173 67.2284C75.044 68.477 75.7093 69.8704 76.4799 71.1954C78.5576 69.4356 79.9779 68.2182 82.4804 67.0544L82.9407 68.0714C81.784 68.7001 80.7051 69.2161 79.7448 70.1217C78.6059 72.0168 79.4091 72.4846 79.68 74.6289C79.5618 75.0847 79.1097 76.8452 79.2453 77.1325C80.2793 79.324 85.6073 92.0592 86.6774 93.0472C86.8222 93.8072 86.7499 94.2481 87.2291 94.6505L88.9385 98.6627C90.7403 99.5579 96.9343 101.112 98.9777 101.507C100.196 100.644 104.136 97.0947 105.633 98.1166C105.134 99.571 102.528 101.209 101.22 102.138L101.554 102.194C102.526 102.356 106.27 103.223 106.713 102.454C106.952 102.039 106.684 101.574 107.481 101.005L107.984 101.216C108.545 102.171 108.889 102.716 108.264 103.681C104.294 105.817 83.0917 99.4276 81.1764 95.882L81.2862 95.5513C82.5211 95.472 83.4567 97.7577 85.0121 96.7489C85.2155 95.965 84.6915 94.4517 84.2096 93.8736C81.292 90.374 78.3676 84.8025 75.4218 81.5526C73.8075 82.9397 72.5902 83.8088 70.7644 84.8773C69.0944 83.3404 66.2456 81.3676 66.5396 79.0154L66.9385 79.6632C67.1216 79.5054 67.3899 79.2873 67.5525 79.1229C68.378 81.42 69.2591 81.9152 71.1625 83.4837C73.3669 81.7706 78.6701 77.548 78.3427 74.5207L77.9384 74.3538L77.2118 74.8321C76.8495 74.8169 76.519 74.9706 76.1737 75.0952L75.9672 74.4688C76.2071 72.5403 74.2781 70.5867 73.6251 68.2098ZM79.6284 84.4101C81.5142 86.7713 81.7486 89.0572 85.1644 92.8268C83.6987 89.7077 81.8374 86.4701 80.2384 83.3803L79.6284 84.4101Z"/><path fill="#BBA04C" d="M79.6284 84.4101C77.4096 82.5165 77.6865 81.427 76.89 80.9358C76.6927 80.4587 76.7723 80.5667 76.9317 79.9421C78.6134 79.1439 80.5369 81.7758 80.2384 83.3803L79.6284 84.4101Z"/><defs><linearGradient id="gradient_1" gradientUnits="userSpaceOnUse" x1="113.65849" y1="109.24031" x2="119.83858" y2="77.315056"><stop offset="0" stop-color="black" stop-opacity="0.96470588"/><stop offset="1" stop-color="black"/></linearGradient></defs><path fill="url(#gradient_1)" d="M134.548 81.0094L135.003 80.3459L135.705 80.2252C135.741 83.547 134.519 85.3935 132.295 87.8095C130.962 88.2692 129.214 88.8154 127.996 89.4476C124.713 95.4002 118.266 105.051 114.294 110.997C114.978 108.448 116.598 104.669 117.597 102.066C119.111 98.1028 120.553 94.1131 121.923 90.0984C118.887 90.6288 116.103 90.4444 113.19 90.8799C111.498 92.8572 110.384 94.1533 108.449 95.9215C110.341 96.0146 112.228 96.1312 114.127 96.0786C115.595 96.038 115.99 95.2132 117.124 95.4746L117.392 95.888C116.315 99.77 106.753 97.2408 104.054 96.4796C102.679 96.0847 101.316 95.649 99.9665 95.1731C100.431 94.7736 100.796 94.7278 101.379 94.579C107.482 96.1434 107.222 95.2167 111.184 90.4589C108.442 90.4254 105.713 90.0773 103.051 89.4216C110.071 88.4413 124.541 90.3532 131.698 86.3353C133.537 85.3025 134.236 83.0362 134.548 81.0094ZM120.542 99.3136C121.357 97.7205 123.686 94.2052 123.661 92.7916C123.367 92.4278 123.306 92.4111 122.853 92.2841C122.339 93.5854 119.91 98.4728 120.27 99.381L120.542 99.3136Z"/><path fill="#ECD177" d="M138.908 59.0622C138.855 59.4447 138.637 60.8354 138.663 61.1317C137.635 62.532 136.5 64.5206 135.521 65.7027L136.518 66.3536L137.363 64.6961C137.387 65.9856 136.749 67.4478 136.081 68.5336L136.169 68.9421C136.367 68.8137 136.678 68.5807 136.886 68.5288C136.482 70.4964 134.713 72.6277 134.497 74.5011C135.346 75.4391 136.113 74.4542 136.863 75.3813C136.559 76.6757 135.608 77.3005 135.214 78.7743C135.044 78.4211 134.953 78.2318 134.831 77.8601L134.808 78.0234L134.341 78.1756C134.265 78.9515 134.109 79.9399 134.277 80.6789C132.855 81.893 131.193 82.8914 129.238 82.9221C128.743 82.5032 128.537 82.8193 127.871 82.2682C126.832 81.7488 126.522 81.1654 125.59 80.3768C125.03 80.4931 124.769 80.591 124.212 80.4085L124.113 79.9963C125.984 77.6677 127.818 75.3097 129.615 72.9233L129.132 71.8084C132.323 67.7589 135.582 62.9097 138.908 59.0622Z"/><path d="M137.363 64.6961C137.387 65.9856 136.749 67.4478 136.081 68.5336L136.169 68.9421C136.367 68.8137 136.678 68.5807 136.886 68.5288C136.482 70.4964 134.713 72.6277 134.497 74.5011C135.346 75.4391 136.113 74.4542 136.863 75.3813C136.559 76.6757 135.608 77.3005 135.214 78.7743C135.044 78.4211 134.953 78.2318 134.831 77.8601L134.808 78.0234L134.341 78.1756C134.265 78.9515 134.109 79.9399 134.277 80.6789C132.855 81.893 131.193 82.8914 129.238 82.9221C128.743 82.5032 128.537 82.8193 127.871 82.2682C130.769 81.7697 133.139 80.353 134.734 77.6004C134.989 77.1608 134.625 76.613 134.397 76.2253C133.835 76.0727 133.267 75.9382 132.696 75.822C132.398 74.8916 135.776 68.2917 136.518 66.3536L137.363 64.6961Z"/><path d="M138.908 59.0622C138.855 59.4447 138.637 60.8354 138.663 61.1317C137.635 62.532 136.5 64.5206 135.521 65.7027C133.513 68.0058 131.584 70.5637 129.615 72.9233L129.132 71.8084C132.323 67.7589 135.582 62.9097 138.908 59.0622Z"/><defs><linearGradient id="gradient_2" gradientUnits="userSpaceOnUse" x1="111.09782" y1="74.12001" x2="129.1096" y2="81.638527"><stop offset="0" stop-color="black" stop-opacity="0.96862745"/><stop offset="1" stop-color="black"/></linearGradient></defs><path fill="url(#gradient_2)" d="M107.453 78.1183C112.377 75.128 116.759 73.8524 122.545 70.096C122.874 70.1998 123.632 70.4152 123.909 70.54C122.788 73.5683 122.108 76.288 120.775 79.274C126.953 76.9337 125.27 75.6362 129.132 71.8084L129.615 72.9233C127.818 75.3097 125.984 77.6677 124.113 79.9963L124.212 80.4085C124.769 80.591 125.03 80.4931 125.59 80.3768C126.522 81.1654 126.832 81.7488 127.871 82.2682C128.537 82.8193 128.743 82.5032 129.238 82.9221C126.29 83.668 111.926 83.4085 108.71 82.4754C111.58 82.1666 117.776 81.8163 119.063 78.6006L118.859 78.1866L118.244 78.0212L118.23 77.0122C119.941 76.6817 120.52 74.9131 121.291 73.4744C116.762 75.6933 112.276 76.7999 107.453 78.1183Z"/><path fill="#ECD177" d="M67.7801 68.1779C69.3972 68.1276 70.9609 70.7395 72.1747 71.9936L72.4688 71.8952C72.901 70.4604 72.567 68.8301 73.6251 68.2098C74.2781 70.5867 76.2071 72.5403 75.9672 74.4688L76.1737 75.0952C76.519 74.9706 76.8495 74.8169 77.2118 74.8321C76.0306 76.266 71.7203 80.7596 69.8498 79.6441C69.6418 78.4806 70.4886 76.6424 69.1464 75.5297C68.1133 76.0467 68.1578 78.1381 67.5525 79.1229C67.3899 79.2873 67.1216 79.5054 66.9385 79.6632L66.5396 79.0154C67.0727 76.8966 67.3273 75.8663 68.2228 73.8342C67.7721 72.7333 67.3049 71.6391 66.8214 70.5522L67.7633 71.3328C67.9545 71.3021 68.2746 71.2638 68.4455 71.2055C68.077 70.143 67.4835 69.0847 67.7801 68.1779Z"/><path d="M66.8214 70.5522L67.7633 71.3328C67.9545 71.3021 68.2746 71.2638 68.4455 71.2055C69.4155 73.1978 70.3501 75.2813 71.7009 77.0395C73.6192 76.3593 74.4585 75.8643 75.9672 74.4688L76.1737 75.0952C76.519 74.9706 76.8495 74.8169 77.2118 74.8321C76.0306 76.266 71.7203 80.7596 69.8498 79.6441C69.6418 78.4806 70.4886 76.6424 69.1464 75.5297C68.1133 76.0467 68.1578 78.1381 67.5525 79.1229C67.3899 79.2873 67.1216 79.5054 66.9385 79.6632L66.5396 79.0154C67.0727 76.8966 67.3273 75.8663 68.2228 73.8342C67.7721 72.7333 67.3049 71.6391 66.8214 70.5522Z"/><path d="M143.247 124.787C149.421 124.896 151.47 131.242 145.2 133.511C138.04 133.712 137.645 126.226 143.247 124.787ZM145.13 131.482C146.385 130.961 146.992 129.532 146.497 128.268C146.001 127.003 144.585 126.367 143.31 126.838C142.463 127.15 141.851 127.897 141.71 128.789C141.569 129.681 141.921 130.579 142.631 131.138C143.34 131.697 144.296 131.828 145.13 131.482Z"/><defs><linearGradient id="gradient_3" gradientUnits="userSpaceOnUse" x1="88.742828" y1="98.241562" x2="88.97393" y2="108.96606"><stop offset="0" stop-color="black" stop-opacity="0.90196079"/><stop offset="1" stop-color="black"/></linearGradient></defs><path fill="url(#gradient_3)" d="M103.171 108.452C102.929 108.541 102.686 108.625 102.441 108.705C96.1766 110.733 87.551 107.416 81.7558 104.7C79.7289 103.75 76.4324 101.616 75.7056 99.3638C75.9965 98.3119 77.427 98.0555 78.3513 98.3417L78.4285 98.6002L78.4531 98.4251C77.971 98.7128 77.483 98.9902 76.9892 99.2572L76.9087 99.769C77.7659 101.312 79.7236 102.112 81.2941 102.911C81.6644 103.125 81.8312 103.219 82.2274 103.378L82.4873 103.086C83.5479 104.321 89.1772 105.687 91.0488 106.179C92.6818 105.28 96.0359 103.348 97.9234 103.866L97.8233 104.245C96.4005 105.687 95.0721 106.16 93.2518 107.106C96.3047 107.48 100.286 107.765 103.171 108.452Z"/><defs><linearGradient id="gradient_4" gradientUnits="userSpaceOnUse" x1="131.43436" y1="126.8917" x2="124.46449" y2="131.11655"><stop offset="0" stop-color="black" stop-opacity="0.95686275"/><stop offset="1" stop-color="black"/></linearGradient></defs><path fill="url(#gradient_4)" d="M124.457 124.817C131.014 124.677 134.02 125.839 130.936 130.759C130.748 131.06 131.74 132.565 131.509 133.6L130.821 133.832C129.851 133.232 128.404 131.789 127.516 130.957C126.981 131.958 126.192 133.936 124.872 133.194C123.98 131.571 124.398 126.892 124.457 124.817ZM129.639 129.102C129.95 128.128 129.994 128.462 129.683 127.588C129.058 126.891 128.055 126.649 127.153 126.335C126.784 127.232 126.562 127.594 126.721 128.531C127.623 129.604 128.346 129.278 129.639 129.102Z"/><defs><linearGradient id="gradient_5" gradientUnits="userSpaceOnUse" x1="86.950127" y1="130.86848" x2="79.75106" y2="127.23311"><stop offset="0" stop-color="black" stop-opacity="0.94901961"/><stop offset="1" stop-color="black" stop-opacity="0.98431373"/></linearGradient></defs><path fill="url(#gradient_5)" d="M80.1007 124.723C82.1128 124.721 84.4888 124.605 86.3256 125.446L86.4166 125.769C85.1383 126.744 82.7014 126.5 81.9357 127.306C82.7193 128.119 84.9643 128.26 86.2649 129.185L86.1245 129.506C84.5985 130.09 83.5492 130.033 81.9133 130.073L82.0492 130.839C82.9619 131.726 86.1639 131.606 86.8504 132.923C86.0768 133.565 81.1904 133.487 79.8288 133.573C79.9238 130.803 79.8134 127.372 80.1007 124.723Z"/><path d="M51.4826 124.827C52.6479 124.829 57.6026 124.751 58.1873 125.608C57.1109 126.54 54.2856 126.485 53.6176 127.509C54.0498 127.815 57.2139 129.018 58.5468 129.787C56.9784 130.003 55.1033 129.904 53.3019 130.121C53.9901 132.31 56.1233 130.932 58.0598 132.811C57.3839 133.608 53.0264 133.339 51.2306 133.633C51.3221 131.784 51.2421 125.962 51.4826 124.827Z"/><path d="M57.6496 52.3687C60.0078 54.4103 62.4273 57.3615 64.1156 59.9847L63.4919 60.4321C63.8349 62.5012 67.6041 65.4144 67.7801 68.1779C67.4835 69.0847 68.077 70.143 68.4455 71.2055C68.2746 71.2638 67.9545 71.3021 67.7633 71.3328L66.8214 70.5522C65.6751 69.2612 58.3986 54.4559 57.6496 52.3687Z"/><defs><linearGradient id="gradient_6" gradientUnits="userSpaceOnUse" x1="99.412636" y1="132.83864" x2="97.137993" y2="125.53488"><stop offset="0" stop-color="black" stop-opacity="0.94117647"/><stop offset="1" stop-color="black" stop-opacity="0.98039216"/></linearGradient></defs><path fill="url(#gradient_6)" d="M96.9602 125.004C98.5616 124.767 101.174 124.786 102.123 126.329C100.868 127.329 95.8489 126.112 96.3993 129.749C96.7687 132.19 99.4127 131.653 101.146 131.337C101.756 131.248 101.517 131.207 102.054 131.475L102.114 132.022C99.4313 136.575 88.8268 130.419 96.9602 125.004Z"/><path d="M75.5039 111.237C77.887 111.648 87.2702 106.954 88.9305 108.796C87.6801 111.006 73.0262 113.991 70.0929 114.232C71.1602 113.398 72.2435 112.532 73.3222 111.718C74.1899 111.457 74.6052 111.369 75.5039 111.237Z"/><path d="M92.6245 141.756C95.8221 141.93 100.663 143.465 96.806 147.167C96.089 147.468 93.0735 147.813 92.0838 147.968C92.2486 146.416 92.105 142.611 92.6245 141.756ZM96.3726 146.054C96.9959 143.888 95.7082 143.003 93.6658 142.865C93.6019 143.806 93.4595 144.766 93.763 145.651C94.7147 146.62 95.0438 146.339 96.3726 146.054Z"/><path d="M80.5513 141.734C80.9127 141.776 81.273 141.828 81.6318 141.889C85.0161 142.479 84.9861 145.908 82.107 147.787C77.1658 147.658 76.9185 143.141 80.5513 141.734ZM81.6263 146.399C82.4942 146.15 83.0125 145.262 82.8019 144.384C82.5914 143.506 81.7267 142.95 80.8405 143.122C80.232 143.241 79.7375 143.683 79.5528 144.275C79.368 144.867 79.5228 145.512 79.9558 145.956C80.3889 146.399 81.0304 146.569 81.6263 146.399Z"/><path d="M112.186 124.845C113.755 124.673 116.06 124.463 117.258 125.613L117.171 126.026C116.123 126.862 116.08 126.273 114.53 126.678C114.2 127.423 114.36 131.755 114.094 133.448C113.473 133.808 113.139 133.504 112.676 133.163C111.796 131.575 112.129 128.6 112.201 126.712C111.106 126.62 110.103 126.639 109.342 125.857L109.465 125.414C110.287 124.846 111.188 124.897 112.186 124.845Z"/><path d="M66.3796 124.56C67.0996 124.684 67.1865 124.712 67.7634 125.171C68.7471 126.899 68.1954 129.701 67.9988 131.74C68.2476 131.73 68.4965 131.725 68.7455 131.725C70.2235 131.72 72.7605 131.403 72.6883 133.358C70.3401 133.459 68.4021 133.394 65.9825 133.614C65.985 131.696 65.8874 126.21 66.3796 124.56Z"/><path d="M63.7061 141.825C65.5368 142.241 65.2843 143.22 66.3514 144.828C67.4764 144.57 68.1665 142.836 69.6135 142.243L70.0326 142.48C70.5522 143.831 70.2352 146.899 69.6387 148.284C69.3467 147.755 68.9026 146.583 68.67 145.994C67.6569 146.471 67.798 146.675 66.5908 146.726C66.1103 146.329 65.9575 146.076 65.6069 145.581C64.7945 145.92 65.1937 146.833 64.2665 147.814L63.8624 147.652C63.2196 146.674 63.5878 143.071 63.7061 141.825Z"/><path d="M131.482 141.728C133.357 142.44 133.67 143.439 134.67 145.192C134.873 144.196 134.974 142.71 135.931 142.262C136.811 143.147 136.609 146.572 136.604 147.893C134.543 147.512 134.731 145.827 133.348 145.431C132.245 146.235 132.851 146.993 131.952 147.696C130.978 146.479 131.164 143.193 131.482 141.728Z"/><defs><linearGradient id="gradient_7" gradientUnits="userSpaceOnUse" x1="142.06563" y1="61.736919" x2="137.11182" y2="61.002323"><stop offset="0" stop-color="black" stop-opacity="0.88627452"/><stop offset="1" stop-color="black"/></linearGradient></defs><path fill="url(#gradient_7)" d="M144.242 52.0641C143.241 55.0126 141.454 58.3997 140.159 61.309C139.245 63.3645 137.957 66.7623 136.886 68.5288C136.678 68.5807 136.367 68.8137 136.169 68.9421L136.081 68.5336C136.749 67.4478 137.387 65.9856 137.363 64.6961C137.747 63.526 138.748 62.4518 138.663 61.1317C138.637 60.8354 138.855 59.4447 138.908 59.0622C140.58 56.8446 142.494 54.173 144.242 52.0641Z"/><path d="M106.193 141.773C107.462 141.724 109.805 141.493 110.519 142.635C110.044 143.497 108.968 142.564 107.538 143.354C108.086 144.187 109.528 143.934 110.216 144.749C109.053 145.225 108.286 144.777 107.061 145.611C107.923 146.198 109.417 146.313 109.822 147.377C109.363 147.621 106.672 147.745 105.777 147.867C105.959 146.197 105.697 143.093 106.193 141.773Z"/><path d="M118.28 141.806C119.974 141.85 121.031 141.983 122.715 142.229C121.757 142.781 121.779 142.574 121.349 143.418C121.473 144.344 121.612 144.79 121.188 145.6L120.977 145.785L120.317 145.693L119.986 146.393C119.385 147.233 119.564 147.249 118.742 147.589C117.929 146.564 118.248 143.29 118.28 141.806Z"/><path d="M103.879 107.455C105.316 107.591 106.979 108.439 107.384 109.926C106.82 112.705 103.343 112.08 101.187 111.946C100.531 111.864 100.652 111.985 100.336 111.6C101.708 110.718 104.635 111.279 105.559 109.996C105.448 109.088 104.564 108.422 103.879 107.455Z"/><path d="M73.3222 111.718C74.6121 110.303 78.7226 105.774 80.316 105.23L80.2026 105.699L80.1014 105.378C80.0287 106.892 76.6818 110.009 75.5039 111.237C74.6052 111.369 74.1899 111.457 73.3222 111.718Z"/><path d="M73.4978 96.7513C72.6417 96.9101 72.2055 96.931 71.5186 97.4525C71.1242 98.4385 71.368 99.0298 71.6466 100.124C70.1854 99.9486 68.7623 98.26 69.0823 96.6509C69.7819 96.0162 69.5148 96.2001 70.4823 95.9911C71.8789 96.0359 72.3523 95.9119 73.4978 96.7513Z"/><defs><linearGradient id="gradient_8" gradientUnits="userSpaceOnUse" x1="120.91862" y1="146.24521" x2="122.91328" y2="143.38745"><stop offset="0" stop-color="black" stop-opacity="0.92941177"/><stop offset="1" stop-color="black" stop-opacity="0.97254902"/></linearGradient></defs><path fill="url(#gradient_8)" d="M122.715 142.229C123.122 143.147 122.708 146.426 123.09 148.514C122.204 147.679 121.172 146.435 119.986 146.393L120.317 145.693L120.977 145.785L121.188 145.6C121.612 144.79 121.473 144.344 121.349 143.418C121.779 142.574 121.757 142.781 122.715 142.229Z"/><path d="M127.16 64.9383L128.193 65.6749C127.356 67.1406 125.255 69.6701 123.909 70.54C123.632 70.4152 122.874 70.1998 122.545 70.096C124.368 68.7463 126.582 67.2394 127.16 64.9383Z"/><path d="M110.346 101.416C112.017 101.411 114.086 103.201 113.175 105.152C112.565 105.876 112.01 105.885 111.079 106.048C110.492 105.897 110.626 106.014 110.234 105.635C111.406 105.317 111.68 105.269 111.965 104.097C111.87 103.064 111.023 102.242 110.346 101.416Z"/><path d="M126.455 63.6317L127.16 64.9383C126.059 64.6921 124.199 66.4582 122.624 67.145L122.44 67.0211C123.188 66.0723 125.375 64.4926 126.455 63.6317Z"/><path d="M90.4866 64.1618C90.383 63.2364 90.2728 62.9532 91.1791 62.5979C92.3947 63.2438 93.414 62.7733 94.554 63.4467C93.8769 64.1233 91.4938 64.1133 90.4866 64.1618Z"/><path d="M81.2941 102.911C82.333 101.553 82.3491 101.007 83.7751 100.061L84.0509 100.108L83.7905 100.781L83.7594 100.256C83.983 101.198 83.0429 102.256 82.4873 103.086L82.2274 103.378C81.8312 103.219 81.6644 103.125 81.2941 102.911Z"/><path fill="#BBA04C" fill-opacity="0.28627452" d="M138.663 61.1317C138.748 62.4518 137.747 63.526 137.363 64.6961L136.518 66.3536L135.521 65.7027C136.5 64.5206 137.635 62.532 138.663 61.1317Z"/><path d="M101.148 77.9626C102.789 78.0826 103.721 78.28 105.338 78.633C103.225 78.8663 100.827 79.0414 98.7057 78.8631C99.8416 78.7167 100.219 78.6984 101.148 77.9626Z"/><path d="M70.4823 95.9911C73.1736 95.4273 74.705 95.9566 77.3527 96.5484L73.4978 96.7513C72.3523 95.9119 71.8789 96.0359 70.4823 95.9911Z"/><path d="M95.8022 93.3438C97.5265 93.8632 99.5912 94.2226 101.379 94.579C100.796 94.7278 100.431 94.7736 99.9665 95.1731C98.1204 94.8499 97.3189 94.3353 95.8022 93.3438Z"/><path d="M94.2169 86.697C96.3543 87.42 97.4514 87.8262 99.4365 88.8703C97.53 88.5908 95.8012 88.0449 93.9577 87.5091L94.2169 86.697Z"/><path d="M134.277 80.6789C134.109 79.9399 134.265 78.9515 134.341 78.1756L134.808 78.0234L134.831 77.8601C134.953 78.2318 135.044 78.4211 135.214 78.7743L135.705 80.2252L135.003 80.3459L134.548 81.0094L134.277 80.6789Z"/><path d="M79.68 74.6289C79.4091 72.4846 78.6059 72.0168 79.7448 70.1217C79.8576 70.2309 80.2839 70.6567 80.3832 70.7195C79.7116 71.7436 79.6597 71.8758 80.2428 73.0472L79.8757 73.0531C79.8228 73.6096 79.7668 74.0755 79.68 74.6289Z"/><path d="M118.244 78.0212C117.237 78.4457 116.799 78.6735 115.686 78.7722L115.512 78.5524C116.093 77.7772 117.301 77.4029 118.23 77.0122L118.244 78.0212Z"/></svg>